<?xml version="1.0" standalone="no"?>
<!DOCTYPE svg PUBLIC "-//W3C//DTD SVG 1.1//EN" "http://www.w3.org/Graphics/SVG/1.1/DTD/svg11.dtd">
<svg t="1735711412826" class="icon" viewBox="0 0 1024 1024" version="1.1"
    xmlns="http://www.w3.org/2000/svg" p-id="4515" xmlns:xlink="http://www.w3.org/1999/xlink"
    width="200" height="200">
    <path
        d="M359.21 725.92l-213.1-165s-46.18-51.38-35.51-113c11.84-68.38 77-80.27 77-80.27s8.08-58.08 45.31-93.66c42-40.14 92.31-26.76 92.31-26.76s28.23-50.64 84.35-65.41c62.16-16.35 100.63 20.81 100.63 20.81s59.73-33.45 105.02-21.63c54.75 14.24 72.51 63.3 72.51 63.3s62.56-3.44 108 37.16c40 35.68 41.43 77.31 41.43 77.31s63.63 20.81 75.47 81.76S887.51 549 887.51 549L670 725.92c5.25-4.26 15 9.67 17.31 12.8 6.38 8.46 9.84 16.37 9.32 27.34-1.48 31.22-47.64 80.28-185.86 80.28S328.13 803.23 328.13 775s31.08-49.08 31.08-49.08z"
        fill="#FFA41F" p-id="4516"></path>
    <path
        d="M187.55 424s8.08-58.08 45.31-93.66c42-40.14 92.31-26.76 92.31-26.76s28.23-50.58 84.35-65.39C471.68 221.84 510.15 259 510.15 259s59.78-33.45 105.07-21.67c54.75 14.24 72.51 63.3 72.51 63.3s62.56-3.44 108 37.16c40 35.68 41.43 77.31 41.43 77.31s61.2 20 74.73 78.29a131.44 131.44 0 0 0 0.74-52.9c-11.84-60.95-75.47-81.76-75.47-81.76s-1.48-41.63-41.43-77.31c-45.47-40.6-108-37.16-108-37.16S670 195.2 615.22 181c-45.29-11.78-105.07 21.67-105.07 21.67s-38.47-37.16-100.63-20.81c-56.12 14.77-84.35 65.41-84.35 65.41s-50.31-13.42-92.31 26.73c-37.23 35.58-45.31 93.66-45.31 93.66s-65.11 11.89-77 80.27a116.82 116.82 0 0 0 1.92 47.47c15.71-60.54 75.08-71.4 75.08-71.4zM359.21 782.29l-28.34-21.95a42.15 42.15 0 0 0-2.74 14.66c0 7.93 3.51 17 11.6 26a92.22 92.22 0 0 1 19.48-18.71zM670 782.29c4.39-3.57 11.89 5.59 15.61 10.51 7.23-9.33 10.63-18.64 11-26.74a41.2 41.2 0 0 0-0.09-5.36c-16.08 13.07-26.4 21.47-26.52 21.59z"
        fill="#F47902" p-id="4517"></path>
    <path
        d="M685.59 736.44C665 763.07 613.1 790 510.75 790c-99.41 0-150.28-22.3-171-45.33-6.25 8.2-11.6 18.63-11.6 30.34 0 28.25 44.4 71.36 182.62 71.36s184.38-49.06 185.86-80.28c0.52-11-2.94-18.88-9.32-27.34-0.41-0.54-0.99-1.35-1.72-2.31z"
        fill="#FFDD92" p-id="4518"></path>
    <path
        d="M510.75 858.84c-63.94 0-114-8.89-148.77-26.43-41.83-21.09-46.35-47.19-46.35-57.43 0-21.12 13.15-38.28 23.7-48.64l-72.31-56a12.5 12.5 0 0 1 15.3-19.77L366.86 716a12.51 12.51 0 0 1-0.69 20.27c-7.09 4.8-25.54 21.15-25.54 38.67 0 9 8.57 23 32.61 35.11 21.48 10.83 62.78 23.75 137.51 23.75 41 0 98.31-4.66 138.12-26.85 16.53-9.21 34.47-25 35.25-41.52 0.34-7.08-1.45-12.11-6.81-19.23l-0.64-0.85a65.4 65.4 0 0 0-5.77-7 12.5 12.5 0 0 1-8.81-22.16l216.28-175.86c4.84-6.85 31.69-47.68 22-97.45-10.32-53.13-66.52-72.09-67.08-72.27a12.5 12.5 0 0 1-8.61-11.44c-0.07-1.43-2.13-37-37.27-68.42-41.14-36.74-98.44-34-99-34a12.52 12.52 0 0 1-12.41-8.24c-0.64-1.71-16.52-43.13-63.91-55.45-39.81-10.36-95.27 20.18-95.82 20.49a12.51 12.51 0 0 1-14.78-1.93c-1.34-1.26-34.62-32-88.77-17.71-50.05 13.17-76.36 59-76.62 59.43a12.54 12.54 0 0 1-14.12 6c-1.74-0.44-44.32-10.82-80.47 23.72-33.69 32.2-41.48 85.8-41.56 86.34a12.5 12.5 0 0 1-10.13 10.57c-2.27 0.44-56.73 11.49-66.88 70.12-8.81 50.87 26.54 95.4 31.85 101.74l45.21 35a12.5 12.5 0 0 1-15.31 19.77l-46.21-35.79a12.49 12.49 0 0 1-1.64-1.53c-2-2.28-50.1-56.66-38.54-123.47 5.45-31.48 22.2-57.12 48.43-74.13a122.92 122.92 0 0 1 30-14.07c3.83-18.28 15.91-62.41 47.54-92.64a115.3 115.3 0 0 1 94.9-31.48c10.84-15.79 39.7-51.24 87.22-63.74 52.91-13.91 90.37 7.13 105.34 18.06 18.47-9 66.67-29.34 106.69-18.93 46.81 12.18 69.28 46.83 77.42 62.88 19.87 0.55 69.41 5.64 108.29 40.36 32.83 29.31 42 62.45 44.62 77.72 18.68 8.07 65.59 33.47 76.23 88.29 12.78 65.77-25.9 116.45-27.56 118.58a11.83 11.83 0 0 1-2 2L691.83 724.26c1.71 2 3.35 4.11 4.94 6.26l0.5 0.68c11.26 14.93 12.24 26.79 11.83 35.45-0.52 10.93-6.24 38.87-48.06 62.17-35.72 19.92-86.29 30.02-150.29 30.02z"
        fill="#4F0F34" p-id="4519"></path>
    <path
        d="M234.89 642.16c-0.4 0-0.82 0-1.23-0.07s-0.81-0.1-1.21-0.18a12.88 12.88 0 0 1-2.34-0.71 13 13 0 0 1-2.15-1.15 12 12 0 0 1-1-0.73 10.3 10.3 0 0 1-0.91-0.83 11.83 11.83 0 0 1-1.56-1.9 12.32 12.32 0 0 1-1.15-2.15 13.12 13.12 0 0 1-0.71-2.34c-0.08-0.4-0.14-0.81-0.18-1.22a10.75 10.75 0 0 1 0-2.45c0-0.41 0.1-0.82 0.18-1.22a13.12 13.12 0 0 1 0.71-2.34 12.32 12.32 0 0 1 1.15-2.15 12 12 0 0 1 0.73-1A13.41 13.41 0 0 1 227 620a12 12 0 0 1 1-0.73 12.32 12.32 0 0 1 2.15-1.15 12.88 12.88 0 0 1 2.34-0.71c0.4-0.08 0.81-0.14 1.21-0.18a11.24 11.24 0 0 1 2.46 0c0.41 0 0.82 0.1 1.22 0.18a12.78 12.78 0 0 1 2.33 0.71 12.06 12.06 0 0 1 2.16 1.15c0.34 0.23 0.67 0.47 1 0.73a11.94 11.94 0 0 1 0.91 0.83 10.3 10.3 0 0 1 0.83 0.91 12 12 0 0 1 0.73 1 12.44 12.44 0 0 1 1.86 4.49c0.08 0.4 0.14 0.81 0.18 1.22s0.07 0.82 0.07 1.23 0 0.82-0.07 1.22-0.1 0.82-0.18 1.22a12.44 12.44 0 0 1-1.86 4.49 12.84 12.84 0 0 1-2.47 2.73c-0.32 0.26-0.65 0.5-1 0.73a12.64 12.64 0 0 1-4.49 1.86c-0.4 0.08-0.81 0.14-1.22 0.18s-0.86 0.05-1.27 0.05zM495.34 805.83a294.89 294.89 0 0 1-78.69-10.71 12.5 12.5 0 1 1 6.64-24.1c50.28 13.85 102.16 13 154.19-2.5a12.5 12.5 0 1 1 7.14 24 311.55 311.55 0 0 1-89.28 13.31zM728.36 340.05c-0.4 0-0.82 0-1.22-0.06s-0.82-0.11-1.22-0.19a12.88 12.88 0 0 1-2.34-0.71 12.32 12.32 0 0 1-2.15-1.15 12.52 12.52 0 0 1-1.9-1.55 12.58 12.58 0 0 1-3.66-8.84q0-0.62 0.06-1.23c0-0.41 0.1-0.82 0.18-1.22a12.78 12.78 0 0 1 0.71-2.33 13.13 13.13 0 0 1 1.15-2.16c0.23-0.34 0.47-0.67 0.73-1a11.94 11.94 0 0 1 0.83-0.91 10.3 10.3 0 0 1 0.91-0.83 11.93 11.93 0 0 1 1-0.72 11.69 11.69 0 0 1 2.15-1.15 12.16 12.16 0 0 1 2.34-0.72c0.4-0.08 0.81-0.14 1.22-0.18a12.54 12.54 0 0 1 2.45 0c0.41 0 0.82 0.1 1.22 0.18a12.16 12.16 0 0 1 2.34 0.72 11.69 11.69 0 0 1 2.15 1.15 12.54 12.54 0 0 1 2.73 2.46c0.26 0.32 0.5 0.65 0.73 1a13.13 13.13 0 0 1 1.15 2.16 12.78 12.78 0 0 1 0.71 2.33c0.08 0.4 0.14 0.81 0.18 1.22s0.07 0.82 0.07 1.23 0 0.82-0.07 1.23-0.1 0.81-0.18 1.21a12.88 12.88 0 0 1-0.71 2.34 13.55 13.55 0 0 1-1.15 2.16 11.86 11.86 0 0 1-0.73 1 12.09 12.09 0 0 1-0.83 0.92c-0.29 0.28-0.59 0.56-0.91 0.82a12 12 0 0 1-1 0.73 12.32 12.32 0 0 1-2.15 1.15 12.88 12.88 0 0 1-2.34 0.71c-0.4 0.08-0.81 0.15-1.22 0.19s-0.82 0.04-1.23 0.04zM764.89 376.74q-0.61 0-1.23-0.06c-0.4 0-0.81-0.1-1.21-0.18a12.16 12.16 0 0 1-2.34-0.72 12.79 12.79 0 0 1-2.16-1.15 11.76 11.76 0 0 1-1-0.72 12.09 12.09 0 0 1-0.92-0.83c-0.29-0.29-0.56-0.6-0.82-0.91s-0.5-0.65-0.73-1a12.41 12.41 0 0 1-1.15-2.16 12.64 12.64 0 0 1-0.71-2.34c-0.08-0.4-0.14-0.81-0.19-1.21s-0.06-0.82-0.06-1.23a12.5 12.5 0 0 1 21.34-8.84c0.29 0.29 0.57 0.6 0.83 0.91s0.5 0.65 0.73 1a12.37 12.37 0 0 1 1.14 2.16 12 12 0 0 1 0.72 2.34c0.08 0.4 0.14 0.81 0.18 1.21s0.06 0.82 0.06 1.23 0 0.82-0.06 1.23-0.1 0.81-0.18 1.21a12 12 0 0 1-0.72 2.34 12.41 12.41 0 0 1-1.15 2.16c-0.22 0.34-0.47 0.67-0.72 1s-0.54 0.62-0.83 0.91-0.6 0.57-0.91 0.83-0.65 0.5-1 0.72a12.41 12.41 0 0 1-2.16 1.15 12 12 0 0 1-2.34 0.72 12.16 12.16 0 0 1-1.21 0.18q-0.58 0.05-1.2 0.05zM707.06 393.64a12.59 12.59 0 0 1-8.84-3.66 12.09 12.09 0 0 1-0.83-0.92 11.86 11.86 0 0 1-0.73-1 13.55 13.55 0 0 1-1.15-2.16 12.88 12.88 0 0 1-0.71-2.34 12.615 12.615 0 0 1-0.24-2.44c0-0.41 0-0.82 0.06-1.23a12.16 12.16 0 0 1 0.18-1.21 12.64 12.64 0 0 1 0.71-2.34 13.13 13.13 0 0 1 1.15-2.16c0.23-0.34 0.47-0.67 0.73-1a11.94 11.94 0 0 1 0.83-0.91 12.58 12.58 0 0 1 4.06-2.7 12.07 12.07 0 0 1 2.33-0.72c0.4-0.08 0.81-0.14 1.22-0.18a12.64 12.64 0 0 1 2.46 0c0.4 0 0.81 0.1 1.21 0.18a12.38 12.38 0 0 1 2.34 0.72 11.69 11.69 0 0 1 2.15 1.15 11.93 11.93 0 0 1 1 0.72 10.3 10.3 0 0 1 0.91 0.83 11.94 11.94 0 0 1 0.83 0.91c0.26 0.32 0.5 0.65 0.73 1a12.41 12.41 0 0 1 1.15 2.16 12.64 12.64 0 0 1 0.71 2.34 12.16 12.16 0 0 1 0.18 1.21q0.06 0.61 0.06 1.23t-0.06 1.23c0 0.4-0.1 0.81-0.18 1.21a12.59 12.59 0 0 1-1.86 4.5 11.86 11.86 0 0 1-0.73 1 12.09 12.09 0 0 1-0.83 0.92 10.2 10.2 0 0 1-0.91 0.82 10.1 10.1 0 0 1-1 0.73 12.32 12.32 0 0 1-2.15 1.15 12.88 12.88 0 0 1-2.34 0.71 10.13 10.13 0 0 1-1.21 0.19c-0.41 0.04-0.83 0.06-1.23 0.06zM356 614.62a12.47 12.47 0 0 1-10.16-5.21L177.4 374.94a12.5 12.5 0 0 1 20.3-14.59l168.42 234.47a12.51 12.51 0 0 1-10.12 19.8zM433.92 587a12.51 12.51 0 0 1-11.87-8.56L313.31 251.17a12.5 12.5 0 0 1 23.69-7.88L445.78 570.6a12.49 12.49 0 0 1-7.92 15.8 12.35 12.35 0 0 1-3.94 0.6zM510.15 571.78a12.5 12.5 0 0 1-12.5-12.5V202.63a12.5 12.5 0 0 1 25 0v356.65a12.5 12.5 0 0 1-12.5 12.5zM669.59 606.2a12.51 12.51 0 0 1-10.15-19.8l168.43-234.46a12.5 12.5 0 0 1 20.3 14.58L679.75 601a12.49 12.49 0 0 1-10.16 5.2zM579 583a12.51 12.51 0 0 1-11.86-16.45l108.74-327.34a12.5 12.5 0 0 1 23.73 7.88L590.86 574.41A12.5 12.5 0 0 1 579 583z"
        fill="#4F0F34" p-id="4520"></path>
</svg>